{
  "source": "C:\\Users\\Peter\\Desktop\\stuff\\MIUN\\quantitative_research\\video_compression\\videos\\BVI-HD\\MartialArts_1920x1080_60fps.mp4",
  "output": "C:\\Users\\Peter\\Desktop\\stuff\\MIUN\\quantitative_research\\video_compression\\compressed_videos\\BVI-HD\\av1\\12\\MartialArts_1920x1080_60fps_av1.mkv",
  "codec": "av1",
  "ok": "Input #0, mov,mp4,m4a,3gp,3g2,mj2, from 'C:\\Users\\Peter\\Desktop\\stuff\\MIUN\\quantitative_research\\video_compression\\videos\\BVI-HD\\MartialArts_1920x1080_60fps.mp4':\n  Metadata:\n    major_brand     : isom\n    minor_version   : 512\n    compatible_brands: isomiso2avc1mp41\n    encoder         : Lavf54.28.101\n  Duration: 00:00:05.00, start: 0.000000, bitrate: 120609 kb/s\n  Stream #0:0[0x1](und): Video: h264 (High 4:4:4 Predictive) (avc1 / 0x31637661), yuv420p(progressive), 1920x1080, 120605 kb/s, 60 fps, 60 tbr, 60 tbn (default)\n    Metadata:\n      handler_name    : VideoHandler\n      vendor_id       : [0][0][0][0]\n[out#0/matroska @ 000002246ff394c0] Codec AVOption b:a (set bitrate (in bits/s)) has not been used for any stream. The most likely reason is either wrong type (e.g. a video option with no video streams) or that it is a private option of some decoder which was not actually used for any stream.\nStream mapping:\n  Stream #0:0 -> #0:0 (h264 (native) -> av1 (libsvtav1))\nPress [q] to stop, [?] for help\nSvt[info]: -------------------------------------------\nSvt[info]: SVT [version]:\tSVT-AV1 Encoder Lib v3.1.0-19-g6ecfe8ec\nSvt[info]: SVT [build]  :\tGCC 15.2.0\t 64 bit\nSvt[info]: LIB Build date: Aug 17 2025 11:37:13\nSvt[info]: -------------------------------------------\nSvt[info]: Level of Parallelism: 5\nSvt[info]: Number of PPCS 93\nSvt[info]: [asm level on system : up to avx2]\nSvt[info]: [asm level selected : up to avx2]\nSvt[info]: -------------------------------------------\nSvt[info]: SVT [config]: main profile\ttier (auto)\tlevel (auto)\nSvt[info]: SVT [config]: width / height / fps numerator / fps denominator \t\t: 1920 / 1080 / 60 / 1\nSvt[info]: SVT [config]: bit-depth / color format \t\t\t\t\t: 8 / YUV420\nSvt[info]: SVT [config]: preset / tune / pred struct \t\t\t\t\t: 4 / PSNR / random access\nSvt[info]: SVT [config]: gop size / mini-gop size / key-frame type \t\t\t: 321 / 16 / key frame\nSvt[info]: SVT [config]: BRC mode / target bitrate (kbps)\t\t\t\t: VBR / 12000 \nSvt[info]: SVT [config]: AQ mode / Variance Boost \t\t\t\t\t: 2 / 0\nSvt[info]: SVT [config]: sharpness / luminance-based QP bias \t\t\t\t: 0 / 0\nSvt[info]: SVT [config]: QP scale compress strength \t\t\t\t\t: 0\nSvt[info]: -------------------------------------------\nOutput #0, matroska, to 'C:\\Users\\Peter\\Desktop\\stuff\\MIUN\\quantitative_research\\video_compression\\compressed_videos\\BVI-HD\\av1\\12\\MartialArts_1920x1080_60fps_av1.mkv':\n  Metadata:\n    major_brand     : isom\n    minor_version   : 512\n    compatible_brands: isomiso2avc1mp41\n    encoder         : Lavf62.3.100\n  Stream #0:0(und): Video: av1 (AV01 / 0x31305641), yuv420p(tv, progressive), 1920x1080, q=2-31, 12000 kb/s, 60 fps, 1k tbn (default)\n    Metadata:\n      encoder         : Lavc62.11.100 libsvtav1\n      handler_name    : VideoHandler\n      vendor_id       : [0][0][0][0]\n    Side data:\n      cpb: bitrate max/min/avg: 0/0/12000000 buffer size: 12000000 vbv_delay: N/A\nframe=    0 fps=0.0 q=0.0 size=       0KiB time=N/A bitrate=N/A speed=N/A elapsed=0:00:01.02    \nframe=    0 fps=0.0 q=0.0 size=       0KiB time=N/A bitrate=N/A speed=N/A elapsed=0:00:01.57    \nframe=    0 fps=0.0 q=0.0 size=       0KiB time=N/A bitrate=N/A speed=N/A elapsed=0:00:02.10    \nframe=    0 fps=0.0 q=0.0 size=       0KiB time=N/A bitrate=N/A speed=N/A elapsed=0:00:02.64    \nframe=    1 fps=0.3 q=1.0 size=       1KiB time=00:00:00.00 bitrate=N/A speed=   0x elapsed=0:00:03.15    \nframe=    1 fps=0.3 q=1.0 size=       1KiB time=00:00:00.00 bitrate=N/A speed=   0x elapsed=0:00:03.68    \nframe=    1 fps=0.2 q=1.0 size=       1KiB time=00:00:00.00 bitrate=N/A speed=   0x elapsed=0:00:04.19    \nframe=    2 fps=0.4 q=15.0 size=       1KiB time=00:00:00.01 bitrate= 341.8kbits/s speed=0.00354x elapsed=0:00:04.71    \nframe=    6 fps=1.1 q=15.0 size=       1KiB time=00:00:00.08 bitrate=  68.4kbits/s speed=0.0159x elapsed=0:00:05.23    \nframe=    8 fps=1.4 q=12.0 size=       1KiB time=00:00:00.11 bitrate=  48.8kbits/s speed=0.0202x elapsed=0:00:05.77    \nframe=   10 fps=1.6 q=10.0 size=       1KiB time=00:00:00.15 bitrate=  38.0kbits/s speed=0.0237x elapsed=0:00:06.32    \nframe=   13 fps=1.9 q=9.0 size=       1KiB time=00:00:00.18 bitrate=  31.1kbits/s speed=0.0266x elapsed=0:00:06.88    \nframe=   18 fps=2.4 q=9.0 size=       1KiB time=00:00:00.28 bitrate=  20.1kbits/s speed=0.0383x elapsed=0:00:07.39    \nframe=   22 fps=2.8 q=10.0 size=       1KiB time=00:00:00.35 bitrate=  16.3kbits/s speed=0.0442x elapsed=0:00:07.92    \nframe=   24 fps=2.8 q=10.0 size=       1KiB time=00:00:00.38 bitrate=  14.9kbits/s speed=0.0454x elapsed=0:00:08.44    \nframe=   28 fps=3.1 q=10.0 size=       1KiB time=00:00:00.45 bitrate=  12.7kbits/s speed=0.0502x elapsed=0:00:08.96    \nframe=   32 fps=3.4 q=10.0 size=       1KiB time=00:00:00.51 bitrate=  11.0kbits/s speed=0.0542x elapsed=0:00:09.53    \nframe=   35 fps=3.5 q=11.0 size=       1KiB time=00:00:00.56 bitrate=  10.1kbits/s speed=0.0564x elapsed=0:00:10.03    \nframe=   38 fps=3.6 q=10.0 size=       1KiB time=00:00:00.61 bitrate=   9.2kbits/s speed=0.0584x elapsed=0:00:10.56    \nframe=   40 fps=3.6 q=10.0 size=       1KiB time=00:00:00.65 bitrate=   8.8kbits/s speed=0.0587x elapsed=0:00:11.06    \nframe=   43 fps=3.7 q=11.0 size=       1KiB time=00:00:00.70 bitrate=   8.1kbits/s speed=0.0604x elapsed=0:00:11.59    \nframe=   46 fps=3.8 q=11.0 size=       1KiB time=00:00:00.75 bitrate=   7.6kbits/s speed=0.0619x elapsed=0:00:12.11    \nframe=   51 fps=4.0 q=10.0 size=       1KiB time=00:00:00.83 bitrate=   6.8kbits/s speed=0.0658x elapsed=0:00:12.66    \nframe=   54 fps=4.1 q=10.0 size=       1KiB time=00:00:00.86 bitrate=   6.6kbits/s speed=0.0657x elapsed=0:00:13.18    \nframe=   55 fps=4.0 q=10.0 size=       1KiB time=00:00:00.90 bitrate=   6.3kbits/s speed=0.0657x elapsed=0:00:13.70    \nframe=   59 fps=4.2 q=10.0 size=       1KiB time=00:00:00.96 bitrate=   5.9kbits/s speed=0.068x elapsed=0:00:14.20    \nframe=   61 fps=4.1 q=9.0 size=       1KiB time=00:00:01.00 bitrate=   5.7kbits/s speed=0.0679x elapsed=0:00:14.73    \nframe=   66 fps=4.3 q=10.0 size=       1KiB time=00:00:01.08 bitrate=   5.3kbits/s speed=0.0709x elapsed=0:00:15.28    \nframe=   68 fps=4.3 q=10.0 size=       1KiB time=00:00:01.11 bitrate=   5.1kbits/s speed=0.0707x elapsed=0:00:15.78    \nframe=   71 fps=4.4 q=9.0 size=       1KiB time=00:00:01.16 bitrate=   4.9kbits/s speed=0.0715x elapsed=0:00:16.32    \nframe=   74 fps=4.4 q=9.0 size=       1KiB time=00:00:01.21 bitrate=   4.7kbits/s speed=0.0722x elapsed=0:00:16.85    \nframe=   76 fps=4.4 q=9.0 size=       1KiB time=00:00:01.25 bitrate=   4.6kbits/s speed=0.0719x elapsed=0:00:17.38    \nframe=   81 fps=4.5 q=1.0 size=       1KiB time=00:00:01.33 bitrate=   4.3kbits/s speed=0.0743x elapsed=0:00:17.94    \nframe=   84 fps=4.6 q=10.0 size=       1KiB time=00:00:01.38 bitrate=   4.1kbits/s speed=0.0749x elapsed=0:00:18.45    \nframe=   86 fps=4.5 q=10.0 size=       1KiB time=00:00:01.41 bitrate=   4.0kbits/s speed=0.0746x elapsed=0:00:18.97    \nframe=   89 fps=4.6 q=4.0 size=       1KiB time=00:00:01.46 bitrate=   3.9kbits/s speed=0.0753x elapsed=0:00:19.48    \nframe=   92 fps=4.6 q=9.0 size=       1KiB time=00:00:01.51 bitrate=   3.8kbits/s speed=0.0758x elapsed=0:00:20.01    \nframe=   97 fps=4.7 q=1.0 size=       1KiB time=00:00:01.58 bitrate=   3.6kbits/s speed=0.077x elapsed=0:00:20.56    \nframe=  100 fps=4.7 q=9.0 size=       1KiB time=00:00:01.65 bitrate=   3.5kbits/s speed=0.0781x elapsed=0:00:21.11    \nframe=  103 fps=4.8 q=10.0 size=       1KiB time=00:00:01.70 bitrate=   3.4kbits/s speed=0.0786x elapsed=0:00:21.64    \nframe=  106 fps=4.8 q=9.0 size=       1KiB time=00:00:01.75 bitrate=   3.3kbits/s speed=0.0789x elapsed=0:00:22.17    \nframe=  108 fps=4.8 q=9.0 size=       1KiB time=00:00:01.78 bitrate=   3.2kbits/s speed=0.0786x elapsed=0:00:22.69    \nframe=  114 fps=4.9 q=12.0 size=       1KiB time=00:00:01.88 bitrate=   3.0kbits/s speed=0.081x elapsed=0:00:23.24    \nframe=  117 fps=4.9 q=10.0 size=       1KiB time=00:00:01.93 bitrate=   2.9kbits/s speed=0.0814x elapsed=0:00:23.76    \nframe=  119 fps=4.9 q=11.0 size=       1KiB time=00:00:01.96 bitrate=   2.9kbits/s speed=0.081x elapsed=0:00:24.27    \nframe=  123 fps=5.0 q=12.0 size=       1KiB time=00:00:02.03 bitrate=   2.8kbits/s speed=0.082x elapsed=0:00:24.78    \nframe=  126 fps=5.0 q=10.0 size=       1KiB time=00:00:02.08 bitrate=   2.7kbits/s speed=0.0823x elapsed=0:00:25.30    \nframe=  131 fps=5.1 q=11.0 size=       1KiB time=00:00:02.16 bitrate=   2.6kbits/s speed=0.0839x elapsed=0:00:25.82    \nframe=  134 fps=5.1 q=10.0 size=       1KiB time=00:00:02.21 bitrate=   2.6kbits/s speed=0.0842x elapsed=0:00:26.33    \nframe=  136 fps=5.1 q=10.0 size=       1KiB time=00:00:02.25 bitrate=   2.5kbits/s speed=0.0838x elapsed=0:00:26.85    \nframe=  140 fps=5.1 q=9.0 size=       1KiB time=00:00:02.31 bitrate=   2.5kbits/s speed=0.0846x elapsed=0:00:27.38    \nframe=  144 fps=5.2 q=10.0 size=       1KiB time=00:00:02.38 bitrate=   2.4kbits/s speed=0.0854x elapsed=0:00:27.91    \nframe=  147 fps=5.2 q=11.0 size=       1KiB time=00:00:02.43 bitrate=   2.3kbits/s speed=0.0855x elapsed=0:00:28.46    \nframe=  150 fps=5.2 q=9.0 size=       1KiB time=00:00:02.48 bitrate=   2.3kbits/s speed=0.0857x elapsed=0:00:28.98    \nframe=  153 fps=5.2 q=4.0 size=       1KiB time=00:00:02.53 bitrate=   2.2kbits/s speed=0.0858x elapsed=0:00:29.51    \nframe=  156 fps=5.2 q=10.0 size=       1KiB time=00:00:02.58 bitrate=   2.2kbits/s speed=0.086x elapsed=0:00:30.04    \nframe=  161 fps=5.3 q=1.0 size=       1KiB time=00:00:02.66 bitrate=   2.1kbits/s speed=0.0872x elapsed=0:00:30.58    \nframe=  163 fps=5.2 q=10.0 size=       1KiB time=00:00:02.70 bitrate=   2.1kbits/s speed=0.0868x elapsed=0:00:31.10    \nframe=  166 fps=5.2 q=10.0 size=       1KiB time=00:00:02.75 bitrate=   2.1kbits/s speed=0.0868x elapsed=0:00:31.67    \nframe=  168 fps=5.2 q=11.0 size=       1KiB time=00:00:02.78 bitrate=   2.0kbits/s speed=0.0865x elapsed=0:00:32.18    \nframe=  171 fps=5.2 q=11.0 size=       1KiB time=00:00:02.83 bitrate=   2.0kbits/s speed=0.0866x elapsed=0:00:32.71    \nframe=  174 fps=5.2 q=11.0 size=       1KiB time=00:00:02.88 bitrate=   2.0kbits/s speed=0.0867x elapsed=0:00:33.24    \nframe=  178 fps=5.3 q=11.0 size=       1KiB time=00:00:02.95 bitrate=   1.9kbits/s speed=0.0874x elapsed=0:00:33.76    \nframe=  180 fps=5.3 q=11.0 size=       1KiB time=00:00:02.98 bitrate=   1.9kbits/s speed=0.087x elapsed=0:00:34.28    \nframe=  183 fps=5.3 q=11.0 size=       1KiB time=00:00:03.03 bitrate=   1.9kbits/s speed=0.0872x elapsed=0:00:34.80    \nframe=  186 fps=5.3 q=12.0 size=       1KiB time=00:00:03.08 bitrate=   1.8kbits/s speed=0.0872x elapsed=0:00:35.35    \nframe=  189 fps=5.3 q=9.0 size=       1KiB time=00:00:03.13 bitrate=   1.8kbits/s speed=0.0873x elapsed=0:00:35.88    \nframe=  194 fps=5.3 q=13.0 size=       1KiB time=00:00:03.21 bitrate=   1.8kbits/s speed=0.0884x elapsed=0:00:36.39    \nframe=  197 fps=5.3 q=10.0 size=       1KiB time=00:00:03.25 bitrate=   1.8kbits/s speed=0.0881x elapsed=0:00:36.90    \nframe=  199 fps=5.3 q=12.0 size=       1KiB time=00:00:03.30 bitrate=   1.7kbits/s speed=0.0882x elapsed=0:00:37.42    \nframe=  205 fps=5.4 q=9.0 size=    5120KiB time=00:00:03.40 bitrate=12336.2kbits/s speed=0.0896x elapsed=0:00:37.94    \nframe=  207 fps=5.4 q=11.0 size=    5120KiB time=00:00:03.43 bitrate=12216.4kbits/s speed=0.0892x elapsed=0:00:38.47    \nframe=  213 fps=5.5 q=11.0 size=    5120KiB time=00:00:03.53 bitrate=11870.7kbits/s speed=0.0906x elapsed=0:00:39.00    \nframe=  217 fps=5.5 q=8.0 size=    5120KiB time=00:00:03.60 bitrate=11650.8kbits/s speed=0.0911x elapsed=0:00:39.52    \nframe=  217 fps=5.4 q=8.0 size=    5120KiB time=00:00:03.60 bitrate=11650.8kbits/s speed=0.0899x elapsed=0:00:40.04    \nframe=  221 fps=5.4 q=10.0 size=    5120KiB time=00:00:03.66 bitrate=11439.0kbits/s speed=0.0904x elapsed=0:00:40.55    \nframe=  223 fps=5.4 q=12.0 size=    5120KiB time=00:00:03.70 bitrate=11336.0kbits/s speed=0.0901x elapsed=0:00:41.07    \nframe=  229 fps=5.5 q=12.0 size=    5120KiB time=00:00:03.80 bitrate=11037.6kbits/s speed=0.0913x elapsed=0:00:41.60    \nframe=  231 fps=5.5 q=13.0 size=    5120KiB time=00:00:03.83 bitrate=10941.7kbits/s speed=0.091x elapsed=0:00:42.11    \nframe=  233 fps=5.5 q=9.0 size=    5120KiB time=00:00:03.86 bitrate=10847.3kbits/s speed=0.0907x elapsed=0:00:42.63    \nframe=  237 fps=5.5 q=10.0 size=    5120KiB time=00:00:03.90 bitrate=10754.6kbits/s speed=0.0904x elapsed=0:00:43.15    \nframe=  239 fps=5.5 q=12.0 size=    5120KiB time=00:00:03.96 bitrate=10573.9kbits/s speed=0.0908x elapsed=0:00:43.68    \nframe=  245 fps=5.5 q=12.0 size=    5120KiB time=00:00:04.06 bitrate=10313.9kbits/s speed=0.092x elapsed=0:00:44.19    \nframe=  247 fps=5.5 q=14.0 size=    5120KiB time=00:00:04.10 bitrate=10230.0kbits/s speed=0.0917x elapsed=0:00:44.72    \nframe=  249 fps=5.5 q=9.0 size=    5120KiB time=00:00:04.13 bitrate=10147.5kbits/s speed=0.0914x elapsed=0:00:45.24    \nframe=  253 fps=5.5 q=10.0 size=    5120KiB time=00:00:04.20 bitrate=9986.4kbits/s speed=0.0918x elapsed=0:00:45.76    \nframe=  255 fps=5.5 q=12.0 size=    5120KiB time=00:00:04.23 bitrate=9907.8kbits/s speed=0.0914x elapsed=0:00:46.30    \nframe=  259 fps=5.5 q=12.0 size=    5120KiB time=00:00:04.30 bitrate=9754.2kbits/s speed=0.0918x elapsed=0:00:46.85    \nframe=  261 fps=5.5 q=10.0 size=    5120KiB time=00:00:04.33 bitrate=9679.2kbits/s speed=0.0915x elapsed=0:00:47.37    \nframe=  265 fps=5.5 q=10.0 size=    5120KiB time=00:00:04.40 bitrate=9532.5kbits/s speed=0.0919x elapsed=0:00:47.89    \nframe=  269 fps=5.6 q=12.0 size=    5120KiB time=00:00:04.46 bitrate=9390.2kbits/s speed=0.0922x elapsed=0:00:48.42    \nframe=  273 fps=5.6 q=4.0 size=    5120KiB time=00:00:04.53 bitrate=9252.1kbits/s speed=0.0926x elapsed=0:00:48.95    \nframe=  277 fps=5.6 q=16.0 size=    5120KiB time=00:00:04.60 bitrate=9118.1kbits/s speed=0.093x elapsed=0:00:49.45    \nframe=  281 fps=5.6 q=12.0 size=    5120KiB time=00:00:04.66 bitrate=8987.8kbits/s speed=0.0934x elapsed=0:00:49.98    \nframe=  281 fps=5.6 q=12.0 size=    5120KiB time=00:00:04.66 bitrate=8987.8kbits/s speed=0.0924x elapsed=0:00:50.49    \nframe=  285 fps=5.6 q=16.0 size=    5120KiB time=00:00:04.73 bitrate=8861.2kbits/s speed=0.0927x elapsed=0:00:51.03    \nframe=  295 fps=5.7 q=16.0 size=    5120KiB time=00:00:04.90 bitrate=8559.8kbits/s speed=0.095x elapsed=0:00:51.55    \n[out#0/matroska @ 000002246ff394c0] video:6523KiB audio:0KiB subtitle:0KiB other streams:0KiB global headers:0KiB muxing overhead: 0.033102%\nframe=  300 fps=5.8 q=16.0 Lsize=    6525KiB time=00:00:04.98 bitrate=10726.4kbits/s speed=0.0966x elapsed=0:00:51.59    \n",
  "seconds": 52.08598446846008,
  "probe_out": {}
}